<svg xmlns="http://www.w3.org/2000/svg" viewBox="0 0 900 560" role="img" aria-label="Onboard computing PCB concept">
  <defs>
    <linearGradient id="bg" x1="0" x2="1" y1="0" y2="1"><stop offset="0" stop-color="#18233f"/><stop offset="1" stop-color="#080b16"/></linearGradient>
    <filter id="glow"><feGaussianBlur stdDeviation="3" result="b"/><feMerge><feMergeNode in="b"/><feMergeNode in="SourceGraphic"/></feMerge></filter>
  </defs>
  <g fill="#0f1b32" stroke="#8ee4ff" stroke-width="4">
    <rect x="330" y="170" width="240" height="220" rx="14"/>
    <rect x="370" y="210" width="160" height="140" rx="8" fill="#172b47"/>
  </g>
  <g stroke="#78f2c8" stroke-width="5" fill="none" opacity=".8" filter="url(#glow)">
    <path d="M330 214H112v-92"/>
    <path d="M330 280H96"/>
    <path d="M330 346H112v92"/>
    <path d="M570 214h218v-92"/>
    <path d="M570 280h234"/>
    <path d="M570 346h218v92"/>
  </g>
  <g fill="#8ee4ff">
    <circle cx="112" cy="122" r="10"/><circle cx="96" cy="280" r="10"/><circle cx="112" cy="438" r="10"/><circle cx="788" cy="122" r="10"/><circle cx="804" cy="280" r="10"/><circle cx="788" cy="438" r="10"/>
  </g>
  <g stroke="#8ee4ff" stroke-width="3" opacity=".75">
    <path d="M350 150v-44M390 150v-44M430 150v-44M470 150v-44M510 150v-44M550 150v-44"/>
    <path d="M350 410v44M390 410v44M430 410v44M470 410v44M510 410v44M550 410v44"/>
  </g>
  <text x="48" y="520" fill="#e8fbff" font-family="Arial" font-size="28" font-weight="700">ONBOARD COMPUTE</text>
</svg>
