<svg xmlns="http://www.w3.org/2000/svg" viewBox="0 0 900 560" role="img" aria-label="Communication PCB concept">
  <defs>
    <linearGradient id="bg" x1="0" x2="1" y1="0" y2="1"><stop offset="0" stop-color="#122f45"/><stop offset="1" stop-color="#071018"/></linearGradient>
    <filter id="glow"><feGaussianBlur stdDeviation="3" result="b"/><feMerge><feMergeNode in="b"/><feMergeNode in="SourceGraphic"/></feMerge></filter>
  </defs>
  <g stroke="#58d7ff" stroke-width="5" fill="none" opacity=".82" filter="url(#glow)">
    <path d="M112 280h170l86-92h164l86 92h170"/>
    <path d="M280 280l88 98h164l88-98"/>
    <path d="M450 188v-96"/>
    <path d="M450 378v90"/>
  </g>
  <g fill="#102639" stroke="#7df4d0" stroke-width="4">
    <circle cx="450" cy="280" r="78"/>
    <rect x="96" y="244" width="88" height="72" rx="8"/>
    <rect x="716" y="244" width="88" height="72" rx="8"/>
  </g>
  <g fill="none" stroke="#8ee4ff" stroke-width="3" opacity=".7">
    <circle cx="450" cy="280" r="118"/><circle cx="450" cy="280" r="158"/><circle cx="450" cy="280" r="198"/>
  </g>
  <g fill="#8ee4ff">
    <circle cx="450" cy="92" r="10"/><circle cx="450" cy="468" r="10"/><circle cx="112" cy="280" r="10"/><circle cx="788" cy="280" r="10"/>
  </g>
  <text x="48" y="520" fill="#e8fbff" font-family="Arial" font-size="28" font-weight="700">COMMUNICATION LINK</text>
</svg>
